<?xml version="1.0" standalone="no"?>
<!DOCTYPE svg PUBLIC "-//W3C//DTD SVG 20010904//EN"
 "http://www.w3.org/TR/2001/REC-SVG-20010904/DTD/svg10.dtd">
<svg version="1.0" xmlns="http://www.w3.org/2000/svg"
 width="178.000000pt" height="284.000000pt" viewBox="0 0 178.000000 284.000000"
 preserveAspectRatio="xMidYMid meet">

<g transform="translate(0.000000,284.000000) scale(0.100000,-0.100000)"
fill="#000000" stroke="none">
<path d="M712 2820 c-63 -10 -107 -22 -113 -31 -6 -8 -8 -36 -5 -63 4 -40 1
-56 -20 -91 -24 -42 -26 -43 -52 -29 -15 8 -43 17 -62 20 -19 4 -46 15 -59 25
-29 23 -84 25 -101 4 -7 -8 -22 -15 -34 -15 -23 0 -66 -37 -66 -56 0 -15 -39
-49 -80 -69 -42 -21 -50 -32 -50 -66 0 -15 -12 -37 -30 -54 -16 -15 -32 -41
-35 -57 -6 -24 -1 -34 34 -68 23 -22 43 -40 46 -40 3 0 5 10 5 23 0 18 -2 19
-10 7 -9 -13 -10 -13 -10 1 0 8 6 21 13 29 6 8 2 6 -10 -4 -29 -24 -31 -4 -3
24 11 11 20 24 20 28 0 5 9 17 20 27 11 10 20 25 19 34 0 11 -3 9 -9 -6 -5
-12 -15 -25 -22 -30 -7 -4 -22 -21 -31 -36 -15 -23 -21 -26 -33 -16 -22 18
-17 43 16 74 22 21 30 38 30 62 0 31 4 36 47 54 25 11 52 27 58 36 11 15 13
15 24 -4 6 -12 25 -24 41 -28 43 -10 35 -36 -15 -51 -39 -12 -39 -12 -9 -13
45 -1 68 -31 59 -78 -3 -22 -1 -51 4 -66 7 -17 7 -28 1 -32 -6 -4 -10 -22 -10
-41 0 -24 -5 -34 -15 -34 -9 0 -20 -11 -27 -25 -6 -13 -15 -22 -19 -19 -5 3
-9 0 -9 -6 0 -6 -10 -10 -22 -8 -16 2 -22 9 -20 21 3 15 -1 18 -20 12 -23 -6
-23 -6 2 15 24 20 24 21 2 10 -19 -9 -26 -8 -42 12 -11 13 -19 18 -20 12 0 -7
12 -25 28 -42 15 -16 32 -38 38 -48 6 -11 19 -21 28 -22 20 -4 56 25 56 45 0
7 5 13 10 13 6 0 10 -13 10 -29 0 -17 -4 -33 -10 -36 -5 -3 -10 -17 -10 -29 0
-13 -7 -29 -16 -36 -8 -8 -14 -25 -13 -39 2 -14 -2 -36 -9 -48 -8 -14 -9 -30
-3 -45 4 -13 6 -29 4 -36 -3 -7 0 -25 5 -40 6 -15 13 -39 16 -54 4 -15 20 -44
37 -63 25 -28 34 -33 45 -24 12 10 10 15 -11 35 -26 24 -33 44 -15 44 6 0 13
-7 16 -15 7 -17 44 -21 44 -5 0 6 -9 19 -20 30 -19 19 -28 60 -12 60 14 -1 39
-25 35 -36 -2 -6 3 -17 12 -24 20 -16 19 -46 -1 -54 -8 -3 -13 -10 -10 -15 8
-12 -21 -41 -40 -41 -8 0 -14 -4 -14 -10 0 -5 9 -10 20 -10 16 0 20 -7 20 -30
0 -19 7 -33 20 -40 18 -10 20 -17 14 -58 -4 -32 1 -76 16 -140 19 -81 20 -101
11 -156 -6 -34 -11 -78 -11 -97 0 -41 -15 -59 -47 -59 -17 0 -26 -8 -33 -27
-6 -16 -14 -35 -19 -43 -6 -12 -4 -16 10 -16 14 0 18 7 17 26 -4 50 20 62 72
35 30 -16 55 -12 63 9 3 8 -4 12 -20 12 -23 -1 -26 3 -30 48 -2 32 5 82 23
150 26 102 29 176 8 289 -5 30 -4 37 9 37 24 0 87 72 87 99 0 20 2 21 15 11 8
-7 15 -22 15 -34 0 -12 5 -27 12 -34 7 -7 11 -34 9 -65 -1 -30 5 -83 14 -118
20 -76 21 -156 2 -178 -8 -9 -19 -31 -25 -50 -10 -29 -10 -32 3 -21 13 11 14
8 8 -21 -3 -19 -10 -43 -14 -54 -6 -15 -8 -11 -8 18 -1 50 -18 47 -31 -5 -19
-72 -20 -75 -47 -114 -14 -21 -18 -32 -9 -25 9 8 19 11 23 8 10 -10 -18 -37
-38 -37 -31 0 -74 -33 -77 -59 -3 -34 -11 -39 -27 -18 -10 14 -14 15 -18 3 -4
-9 3 -16 19 -20 13 -4 24 -11 24 -16 0 -6 8 -10 18 -10 16 1 16 1 0 10 -23 14
-5 70 23 70 18 0 19 -1 3 -25 l-16 -25 126 0 c94 0 125 -3 120 -12 -5 -7 -3
-8 6 -3 13 8 13 8 -4 -63 -2 -12 -8 -27 -11 -32 -3 -6 -2 -10 3 -10 6 0 13 11
16 24 8 32 50 82 100 117 21 16 35 29 30 29 -5 0 -19 -7 -31 -15 -20 -14 -22
-13 -26 2 -4 17 -5 17 -6 1 0 -10 -8 -18 -16 -18 -8 0 -15 8 -15 18 -1 16 -1
16 -11 0 -13 -23 -36 -23 -42 0 -4 14 -6 14 -12 -5 -8 -24 -29 -30 -40 -13
-15 23 17 40 76 40 58 0 59 1 59 27 l0 27 -16 -22 c-13 -18 -19 -21 -30 -11
-10 8 -14 8 -14 0 0 -6 -7 -11 -16 -11 -11 0 -14 6 -10 23 3 12 3 16 0 9 -3
-6 -10 -10 -15 -7 -5 4 -6 -1 -3 -9 5 -12 0 -16 -20 -16 -14 0 -26 5 -26 10 0
18 -20 11 -21 -7 0 -16 -2 -15 -10 2 l-9 20 2 -20 c3 -27 -23 -65 -44 -65 -24
0 -22 15 5 37 17 14 22 28 22 68 0 43 3 50 20 50 14 0 24 11 34 40 22 64 40
156 41 203 0 28 4 42 11 40 10 -3 15 -51 21 -185 1 -18 5 -30 10 -27 12 7 10
223 -2 264 -6 19 -13 79 -17 133 l-6 97 40 0 c40 0 83 -30 83 -58 0 -21 18
-13 22 10 4 26 18 32 38 15 13 -10 14 -33 9 -147 -7 -140 -15 -183 -30 -158
-5 7 -9 38 -9 68 0 70 -10 130 -21 130 -18 0 -9 -129 12 -192 12 -35 25 -67
30 -72 12 -14 11 -106 -1 -106 -5 0 -10 24 -10 54 0 30 -4 57 -8 60 -5 3 -7
-19 -4 -49 2 -30 1 -55 -4 -55 -5 0 -9 -11 -9 -25 0 -14 5 -25 12 -25 7 0 10
-6 7 -13 -3 -8 2 -14 10 -14 11 0 14 7 10 26 -4 18 -3 22 4 13 9 -14 24 151
27 313 3 130 0 121 44 119 22 -1 44 -5 50 -9 6 -3 11 -40 11 -87 0 -45 7 -111
16 -146 11 -45 14 -81 9 -121 -10 -83 -11 -133 -2 -158 8 -22 6 -23 -56 -23
-70 0 -75 4 -78 70 -1 17 -3 19 -6 8 -2 -10 -9 -18 -15 -18 -7 0 -7 -4 0 -12
5 -7 13 -23 16 -35 6 -17 3 -23 -9 -23 -12 0 -15 6 -10 23 4 15 3 18 -3 8 -8
-11 -11 -11 -16 0 -3 8 -3 3 1 -11 5 -22 4 -23 -10 -12 -12 10 -16 10 -20 0
-3 -7 -6 1 -7 17 -2 47 -12 66 -27 50 -10 -10 -9 -14 3 -19 10 -4 14 -16 12
-33 -3 -25 0 -28 27 -28 17 0 32 -3 36 -7 3 -4 21 -3 39 2 114 33 262 -36 311
-145 10 -22 19 -33 19 -24 0 8 -13 36 -30 62 l-30 47 54 0 53 0 -10 -51 c-6
-29 -6 -54 -1 -59 5 -5 10 9 10 35 2 76 2 76 106 69 88 -5 148 -23 148 -44 0
-6 6 -10 14 -10 10 0 16 -13 19 -37 3 -31 4 -29 5 15 2 53 21 74 23 25 2 -24
2 -25 6 -5 6 33 21 27 26 -10 3 -24 4 -21 3 9 -1 24 3 42 9 40 6 -1 9 -5 7 -9
-1 -5 2 -8 6 -8 5 0 9 -6 10 -12 0 -7 4 -38 8 -68 3 -30 7 -64 7 -75 1 -43
-13 -146 -22 -163 -8 -12 -11 20 -12 113 l-3 130 -6 -130 c-4 -71 -8 -132 -10
-135 -2 -3 -6 15 -10 40 l-7 45 -1 -47 c-1 -27 -6 -48 -12 -48 -5 0 -10 7 -10
15 0 8 -4 15 -10 15 -5 0 -10 -9 -10 -19 0 -11 -4 -22 -10 -26 -5 -3 -6 -13
-3 -22 4 -11 2 -14 -8 -11 -19 6 -13 89 8 105 8 6 13 17 12 22 -2 6 -17 -6
-33 -26 -16 -20 -24 -33 -18 -29 8 5 11 -6 10 -38 -2 -34 -7 -46 -21 -50 -11
-3 -21 2 -25 12 -6 18 -27 42 -35 42 -3 0 -8 -7 -11 -15 -4 -11 0 -15 11 -13
11 2 19 -5 21 -17 2 -11 1 -17 -3 -13 -5 4 -14 3 -21 -3 -10 -8 -15 -8 -18 2
-15 49 -15 49 -46 42 -30 -5 -31 -5 -25 23 l6 29 -15 -25 c-8 -14 -12 -29 -9
-35 3 -5 0 -5 -6 1 -10 9 -10 17 -1 35 11 23 10 23 -4 5 -9 -11 -16 -23 -16
-28 0 -4 -16 -8 -35 -8 -19 0 -35 -4 -35 -9 0 -15 18 -22 22 -9 5 14 28 2 28
-15 0 -9 -18 -13 -54 -14 -45 -1 -55 2 -59 18 -3 10 -11 19 -19 19 -10 0 -10
-2 1 -9 9 -6 11 -16 7 -27 -7 -18 -8 -18 -22 0 -12 17 -14 18 -14 3 0 -24 -19
-21 -30 5 -6 18 -4 27 12 40 11 10 25 15 32 11 6 -3 8 -3 4 2 -4 4 6 18 22 31
42 36 80 119 80 176 0 34 5 50 15 54 8 4 13 10 10 15 -3 4 -12 6 -20 2 -11 -4
-15 -21 -15 -62 0 -33 -8 -73 -19 -97 -22 -48 -80 -107 -121 -124 -31 -13 -38
-26 -18 -32 24 -8 0 -35 -30 -33 -21 1 -29 -2 -25 -12 3 -7 1 -13 -5 -13 -6 0
-13 6 -15 13 -4 9 -6 9 -6 0 -1 -16 -81 -18 -81 -3 0 6 4 10 10 10 5 0 7 7 3
16 -4 12 0 15 18 14 60 -5 67 3 8 10 -151 18 -247 115 -250 255 -1 49 -3 54
-8 25 -4 -23 -15 -39 -31 -48 l-25 -14 28 6 c21 5 27 3 27 -11 1 -31 37 -99
75 -142 l37 -41 -40 0 c-42 0 -72 -19 -72 -47 0 -8 -6 -13 -12 -11 -18 6 -23
38 -6 38 7 0 14 12 15 26 l1 27 -19 -29 c-10 -16 -19 -37 -19 -48 0 -15 -3
-16 -14 -7 -11 9 -15 9 -18 -1 -4 -10 -8 -10 -21 1 -13 10 -17 10 -17 1 0 -10
-3 -10 -15 0 -21 18 -19 33 5 27 11 -3 23 -1 26 4 9 15 -82 10 -95 -4 -6 -8
-8 -17 -4 -20 3 -4 -1 -7 -10 -7 -22 0 -33 20 -16 31 9 6 3 8 -21 8 -19 -1
-28 -3 -18 -6 9 -2 19 -11 22 -19 7 -17 -6 -18 -22 -2 -9 9 -12 9 -12 -1 0
-11 -3 -11 -15 -1 -8 7 -13 16 -10 20 3 4 -1 13 -8 19 -11 8 -17 5 -27 -14
-14 -25 -30 -29 -37 -8 -2 6 4 13 14 16 16 4 15 6 -4 12 -13 4 -23 12 -23 19
0 6 -6 2 -12 -9 -11 -19 -11 -19 -19 0 -7 19 -8 18 -8 -2 -1 -13 -6 -23 -12
-23 -6 0 -8 17 -5 48 3 26 3 38 0 27 -13 -45 -23 -34 -18 21 4 58 4 59 -9 24
-13 -33 -14 -29 -19 85 -3 66 -2 125 3 131 4 5 6 21 3 35 l-6 24 21 -24 c12
-13 21 -18 21 -12 0 6 5 11 10 11 6 0 10 -8 10 -17 0 -15 2 -15 9 -4 7 11 10
10 14 -5 4 -16 5 -16 6 -2 0 10 -10 25 -24 34 -32 21 -26 29 9 13 19 -9 26
-20 27 -43 1 -18 5 -6 10 29 5 33 14 68 20 79 6 11 7 22 2 27 -6 6 -15 -6 -23
-31 -14 -44 -35 -55 -28 -15 3 14 1 28 -5 32 -5 3 -7 1 -3 -5 3 -6 -3 -13 -14
-17 -11 -3 -20 -13 -20 -21 0 -8 -9 -14 -20 -14 -27 0 -35 -36 -34 -143 1 -48
-3 -87 -7 -87 -5 0 -9 11 -9 25 0 14 -4 25 -10 25 -15 0 -12 -50 4 -56 8 -3
17 -27 21 -57 9 -59 39 -123 66 -137 10 -6 44 -13 76 -16 l59 -6 -4 -33 c-3
-26 2 -36 24 -54 l28 -22 502 3 c493 3 503 3 531 24 18 14 29 32 31 53 3 28 8
32 49 42 48 13 103 52 103 75 0 8 5 14 11 14 13 0 42 68 35 83 -2 7 -5 4 -5
-5 -1 -10 -4 -18 -8 -18 -5 0 -8 54 -8 119 0 139 18 151 24 15 l3 -84 20 25
c11 14 17 33 15 43 -4 13 -5 11 -6 -5 -2 -46 -21 -22 -21 26 0 63 -10 88 -61
157 -35 47 -44 55 -65 50 -20 -5 -24 -3 -24 16 0 13 -9 37 -20 53 -19 28 -20
29 -20 7 0 -12 7 -25 15 -28 23 -9 19 -44 -5 -44 -15 0 -20 7 -20 25 0 14 -5
25 -10 25 -6 0 -20 15 -31 34 -11 19 -28 36 -39 39 -10 3 -29 20 -40 38 -18
28 -20 30 -15 9 9 -31 34 -60 52 -60 7 0 16 -8 20 -17 3 -10 17 -30 31 -45 21
-23 23 -30 12 -43 -11 -13 -9 -15 13 -15 30 0 44 -17 28 -33 -7 -7 -12 -6 -17
7 -6 15 -7 15 -19 0 -11 -15 -13 -15 -28 6 -9 13 -14 27 -11 32 3 4 -2 8 -11
8 -12 0 -15 6 -10 20 3 11 2 28 -4 37 -8 15 -10 11 -11 -19 0 -96 -95 14 -130
151 -7 25 -24 68 -38 95 -29 55 -29 42 -19 309 4 109 10 153 20 165 18 21 29
66 28 111 -1 18 3 39 8 45 10 12 12 86 3 101 -3 5 -5 23 -3 39 3 28 -3 45 -35
109 -8 16 -14 41 -14 57 0 16 -4 31 -9 34 -15 10 -21 70 -10 111 6 22 15 60
20 85 10 49 29 77 29 44 1 -18 2 -18 19 4 11 12 30 22 45 22 17 0 30 9 41 28
l16 27 -6 -35 -5 -35 20 33 c24 39 25 43 5 36 -11 -5 -15 1 -16 22 l-1 29 -7
-31 c-11 -43 -19 -54 -41 -54 -30 0 -50 -11 -50 -29 -1 -23 -40 25 -40 49 0
26 39 71 77 86 18 8 33 16 33 18 0 4 -57 -9 -80 -18 -12 -5 -19 3 -29 29 -7
19 -17 35 -22 35 -5 0 -9 20 -9 44 0 27 -6 48 -16 57 -8 7 -13 21 -11 30 3 10
-2 27 -10 38 -11 17 -25 21 -71 21 -35 0 -52 -4 -44 -9 11 -7 11 -9 -2 -14 -9
-4 -16 -11 -16 -17 0 -7 9 -5 22 4 31 22 77 21 84 -1 8 -24 24 -64 36 -86 6
-13 4 -26 -8 -45 -9 -15 -13 -24 -9 -20 10 10 55 -46 55 -69 0 -10 -5 -24 -12
-31 -8 -8 -8 -12 -1 -12 17 0 26 -102 12 -133 -7 -15 -16 -24 -22 -20 -6 4 -8
-2 -5 -15 7 -26 -13 -30 -32 -7 -16 20 -27 100 -12 91 8 -5 10 -1 6 9 -4 9 2
31 12 50 14 27 15 38 7 57 -9 17 -12 19 -12 6 -1 -10 -10 -22 -21 -28 -21 -11
-26 -39 -11 -55 5 -6 7 -34 4 -64 -4 -41 -10 -55 -24 -58 -10 -3 -21 -14 -24
-24 -8 -26 -23 -24 -28 4 -3 16 -5 14 -6 -9 -2 -47 -23 -58 -117 -61 -79 -2
-85 -1 -100 22 -9 14 -20 22 -25 20 -4 -3 -13 4 -19 15 -6 11 -19 20 -30 20
-10 0 -22 10 -26 23 -8 21 -8 21 -13 -7 -9 -47 -34 -55 -65 -20 -30 35 -34 64
-7 64 10 0 23 6 29 13 9 10 4 12 -21 9 l-33 -4 -1 61 c-2 58 7 76 24 49 4 -7
8 -17 8 -22 0 -5 7 -12 15 -14 12 -4 11 0 -3 19 -54 76 -52 67 -34 105 17 35
32 43 40 22 3 -7 5 6 4 28 -1 23 -5 40 -9 37 -5 -2 -8 10 -8 27 0 23 6 33 25
40 14 5 29 9 33 8 4 -1 15 2 25 7 12 5 24 1 37 -10 19 -17 20 -17 20 4 0 16 5
22 18 19 12 -2 18 -14 20 -41 2 -24 8 -37 15 -34 7 3 10 11 8 18 -10 33 -5 64
9 64 10 0 16 -12 18 -37 3 -37 4 -38 43 -38 36 0 39 2 29 19 -17 33 -12 61 11
61 19 0 21 -5 17 -39 l-3 -40 55 -20 c65 -25 73 -30 88 -56 11 -19 11 -19 12
2 0 16 -9 27 -34 37 -18 8 -37 19 -40 25 -4 6 -12 9 -17 6 -5 -4 -9 4 -9 17
-1 20 -2 21 -11 6 -15 -27 -29 -22 -29 10 0 31 9 47 30 55 43 16 -171 14 -278
-3z m188 -35 c0 -39 -14 -46 -30 -14 -9 15 -8 24 1 35 19 23 29 16 29 -21z
m-505 -166 c13 -13 19 -33 18 -62 -1 -23 -2 -55 -3 -70 0 -19 -5 -25 -13 -21
-9 5 -9 3 1 -7 13 -14 16 -51 6 -62 -4 -3 -16 -1 -28 5 -21 11 -21 10 -3 -10
24 -26 20 -88 -5 -86 -19 2 -14 -22 7 -30 14 -5 24 21 25 64 l1 25 20 -27 c20
-27 59 -39 59 -18 0 6 -8 10 -19 10 -31 0 -42 24 -40 94 1 37 -1 69 -4 73 -4
3 -2 12 4 20 6 7 11 31 11 53 -1 33 3 40 18 40 10 0 22 -5 25 -10 4 -6 16 -8
27 -4 22 7 68 -29 68 -55 0 -10 -12 -3 -37 20 -20 18 -33 28 -29 22 4 -8 2
-13 -6 -13 -7 -1 1 -7 17 -14 47 -20 58 -40 53 -91 -3 -24 -3 -47 0 -49 3 -3
6 -32 6 -63 1 -32 6 -65 11 -73 15 -24 -5 -119 -33 -152 -8 -10 -12 -24 -9
-32 3 -8 -1 -20 -9 -27 -8 -7 -14 -22 -13 -33 1 -12 -2 -30 -6 -41 -11 -24
-10 -218 0 -259 6 -22 5 -28 -6 -24 -8 3 -15 10 -15 16 -1 7 -3 24 -4 40 l-2
27 -7 -25 c-4 -14 -16 -26 -26 -28 -16 -2 -17 -1 -6 6 17 12 7 42 -13 42 -10
0 -13 6 -10 15 4 10 13 13 26 9 13 -4 24 -1 29 7 13 21 11 35 -3 21 -15 -15
-55 -16 -63 -1 -11 16 3 23 19 10 19 -16 32 4 16 24 -14 17 -5 50 10 40 16
-10 24 23 10 40 -7 8 -9 23 -6 32 6 15 8 15 16 3 13 -21 12 0 -2 40 -9 28 -9
35 7 46 12 9 16 20 11 37 -3 14 0 32 9 43 23 30 17 40 -8 13 -13 -14 -21 -33
-19 -45 3 -14 -4 -27 -19 -38 -13 -9 -18 -16 -11 -16 7 0 12 -13 12 -30 0 -23
-5 -31 -25 -36 l-25 -6 22 -18 c19 -15 20 -20 9 -34 -7 -9 -21 -16 -29 -16
-12 0 -13 -3 -4 -12 17 -17 15 -45 -5 -57 -15 -8 -16 -12 -5 -22 6 -7 12 -21
12 -31 0 -19 -37 -44 -48 -32 -4 4 -1 9 6 11 21 8 13 31 -15 45 -19 9 -29 22
-31 41 -4 30 9 35 28 12 16 -19 30 -19 30 0 0 8 -9 19 -21 25 -13 7 -19 19
-17 33 4 22 9 24 41 12 25 -10 21 12 -8 38 -22 20 -23 24 -10 41 15 20 15 20
29 0 8 -10 18 -16 22 -11 4 4 -5 21 -21 37 -28 29 -28 30 -10 50 17 19 19 19
37 4 10 -10 18 -12 18 -6 0 7 -9 17 -20 24 -11 7 -20 20 -20 28 -1 8 -7 0 -15
-17 -14 -32 -39 -42 -61 -25 -5 4 1 -2 14 -14 30 -27 27 -68 -6 -72 l-22 -3
22 -19 c19 -15 21 -22 12 -37 -8 -11 -22 -17 -40 -16 -27 2 -27 2 -6 -13 26
-18 28 -37 7 -54 -8 -7 -15 -21 -15 -31 0 -10 -7 -22 -16 -27 -11 -6 -13 -11
-5 -16 6 -4 11 -16 11 -27 0 -14 -7 -19 -25 -19 -14 0 -25 5 -25 11 0 5 4 8 9
4 20 -11 20 14 1 38 -11 14 -20 30 -20 36 0 16 20 13 26 -4 4 -8 10 -12 15 -9
5 3 -2 19 -16 36 -14 16 -25 36 -25 44 0 22 31 17 37 -6 3 -11 9 -20 14 -20
15 0 10 24 -11 50 -11 14 -20 38 -20 54 l0 30 30 -29 c39 -38 46 -28 13 18
-18 26 -23 41 -16 48 7 7 15 5 26 -5 16 -16 37 -21 37 -10 0 3 -11 15 -25 26
-25 19 -32 52 -17 76 11 16 42 5 42 -16 0 -13 3 -13 12 -4 10 10 10 16 0 30
-29 40 -52 78 -52 85 0 14 24 7 47 -15 37 -35 27 0 -12 43 -38 42 -52 87 -17
56 22 -20 66 -23 60 -4 -3 6 -18 14 -34 17 -18 3 -30 12 -32 24 -3 15 0 18 17
13 13 -3 21 0 21 8 0 7 -11 16 -24 19 -31 8 -41 34 -20 57 23 25 11 49 -24 49
-35 0 -55 20 -50 52 2 17 9 23 27 22 23 -1 23 0 5 14 -18 13 -16 14 16 9 21
-2 39 1 48 9 20 20 56 17 77 -7z m738 -283 c28 -22 21 -60 -19 -100 -40 -40
-59 -46 -49 -16 3 11 -1 31 -12 47 -16 25 -16 26 -1 21 13 -5 15 -3 11 9 -4
10 -2 14 4 10 6 -4 14 0 17 9 4 10 12 14 22 10 14 -5 15 -4 4 9 -15 18 -1 19
23 1z m-500 -23 c18 -17 19 -17 28 0 15 25 29 21 29 -10 0 -26 1 -26 15 -7 14
18 14 18 15 -6 1 -14 4 -19 7 -12 8 19 26 14 20 -7 -5 -19 26 -55 37 -44 3 4
6 1 6 -7 0 -10 3 -10 15 0 11 9 15 9 15 1 0 -7 5 -9 10 -6 6 3 10 0 10 -7 0
-8 3 -9 8 -3 4 6 16 11 27 13 15 2 21 -4 22 -19 2 -26 8 -33 23 -24 8 5 8 11
-1 21 -16 19 -3 31 19 17 13 -8 21 -7 31 4 7 8 19 12 27 9 8 -3 14 0 14 7 0 8
4 6 10 -3 8 -12 10 -10 10 9 0 19 3 21 15 11 9 -8 12 -22 8 -43 -8 -43 -21
-57 -50 -57 -21 0 -23 2 -13 14 9 11 9 19 0 33 -10 16 -10 16 -5 -3 8 -29 -11
-40 -79 -47 -54 -5 -60 -4 -83 21 -24 25 -25 26 -19 5 6 -18 3 -23 -11 -23
-25 0 -76 59 -70 82 3 10 1 18 -4 18 -9 0 -13 -22 -10 -48 2 -10 -5 -9 -23 4
-14 9 -26 25 -26 35 0 11 -7 22 -15 26 -16 6 -51 63 -39 63 4 0 16 -8 27 -17z
m-608 -3 c3 -5 1 -10 -4 -10 -6 0 -11 5 -11 10 0 6 2 10 4 10 3 0 8 -4 11 -10z
m621 -116 c7 -25 -12 -74 -28 -74 -12 0 -10 48 2 55 6 4 8 15 5 26 -4 10 -2
19 4 19 6 0 14 -12 17 -26z m514 -52 c0 -26 -25 -5 -28 24 -2 28 -2 28 13 10
8 -11 15 -26 15 -34z m-454 -38 c-3 -8 -15 -14 -27 -14 -15 0 -19 -5 -15 -15
3 -8 1 -15 -3 -15 -13 0 -22 30 -16 49 3 9 17 23 32 32 26 14 28 14 31 -4 2
-10 1 -25 -2 -33z m394 20 c0 -18 -5 -24 -21 -24 -17 0 -19 3 -10 13 6 8 8 17
5 20 -9 9 6 28 17 22 5 -4 9 -17 9 -31z m-511 -16 c-12 -22 -30 -24 -24 -3 16
51 16 50 25 35 5 -8 5 -21 -1 -32z m231 18 c0 -2 -16 -20 -35 -40 -20 -21 -32
-43 -29 -51 7 -17 3 -18 -20 -9 -41 16 7 104 56 104 15 0 28 -2 28 -4z m46
-61 c-8 -13 -25 -27 -37 -30 -15 -5 -19 -13 -16 -27 4 -14 1 -18 -11 -16 -28
5 -26 52 3 86 44 53 97 42 61 -13z m113 20 c11 -19 25 -35 31 -35 21 0 11 -50
-12 -60 -16 -6 -18 -9 -7 -9 9 -1 19 -8 23 -16 7 -19 -20 -46 -39 -39 -8 4
-15 3 -15 0 0 -4 11 -11 25 -16 15 -6 25 -17 25 -29 0 -23 -25 -45 -41 -35 -8
4 -9 3 -5 -4 4 -7 16 -12 27 -12 26 0 25 -32 -2 -56 -21 -19 -22 -19 -15 3 6
18 0 26 -32 47 -22 14 -50 37 -62 53 -13 15 -20 20 -17 11 4 -12 -1 -21 -13
-28 -12 -6 -20 -21 -20 -35 0 -28 -12 -32 -30 -10 -15 18 -4 75 16 75 8 0 14
8 14 19 0 16 29 34 45 28 2 -1 11 7 18 18 11 14 18 17 28 9 22 -17 49 -24 49
-13 0 5 -12 14 -27 20 -16 6 -36 18 -45 26 -16 15 -18 15 -18 0 0 -8 -16 -25
-35 -37 -28 -17 -34 -27 -29 -42 5 -16 2 -19 -13 -16 -28 5 -29 48 -1 69 12
10 23 24 23 31 0 7 16 18 35 25 31 10 35 15 34 42 -1 17 2 28 7 25 5 -3 9 -11
9 -19 0 -22 63 -76 75 -64 6 6 0 18 -21 34 -17 13 -39 36 -48 50 -16 25 -16
25 13 25 23 0 34 -8 50 -35z m59 19 c9 -8 28 -24 42 -34 22 -17 24 -21 12 -40
-12 -19 -11 -25 7 -44 16 -17 18 -25 9 -34 -7 -7 -19 -12 -27 -12 -13 -1 -13
-3 2 -15 10 -7 17 -21 15 -31 -4 -22 -28 -31 -28 -11 0 8 -8 21 -19 28 -20 15
-37 79 -21 79 5 0 7 7 4 15 -4 8 -3 23 1 33 6 16 7 16 21 -2 12 -17 14 -17 14
-3 0 9 -11 19 -25 23 -24 6 -55 38 -55 56 0 14 29 9 48 -8z m136 0 c20 -20 20
-40 1 -48 -9 -3 -15 0 -15 8 0 7 -7 19 -15 26 -8 7 -15 16 -15 21 0 15 27 10
44 -7z m-32 -29 c8 -18 8 -28 -1 -39 -9 -11 -8 -15 4 -20 19 -7 17 -57 -3 -64
-7 -2 -10 2 -6 11 3 10 -3 20 -16 27 -12 6 -18 16 -13 23 12 20 10 47 -4 58
-7 6 -10 15 -7 20 10 17 35 9 46 -16z m-517 4 c4 -6 -3 -22 -16 -35 -14 -15
-20 -28 -13 -32 12 -8 16 -52 5 -52 -4 0 -13 -10 -19 -22 -10 -22 -11 -22 -11
8 -1 16 4 35 11 42 8 8 8 15 -1 26 -10 12 -9 21 4 45 16 32 29 39 40 20z m-61
-41 c-4 -24 -6 -60 -6 -80 2 -39 -14 -60 -24 -34 -4 9 -1 23 6 31 10 12 10 15
0 15 -8 0 -9 6 -5 18 4 9 7 28 6 41 -1 21 14 51 26 51 3 0 1 -19 -3 -42z m110
-33 c-16 -13 -24 -27 -20 -33 9 -16 -7 -15 -22 0 -17 17 -15 23 20 64 31 36
32 36 40 13 7 -18 4 -27 -18 -44z m524 33 c15 -15 16 -48 2 -48 -5 0 -12 0
-15 0 -3 0 -4 2 -2 3 1 2 -4 11 -11 20 -23 27 2 49 26 25z m-438 -42 c0 -8 -4
-18 -10 -21 -16 -10 -12 -45 4 -39 9 3 15 -5 19 -23 5 -22 1 -33 -19 -49 -16
-13 -23 -26 -18 -37 5 -13 2 -16 -10 -11 -24 9 -25 57 0 84 11 13 10 17 -6 28
-22 14 -26 52 -8 70 17 17 48 15 48 -2z m455 -50 c0 -29 -18 -29 -32 0 -11 23
-10 25 10 22 14 -2 22 -10 22 -22z m-525 -5 c0 -10 -7 -24 -15 -31 -8 -7 -15
-21 -15 -32 0 -29 -24 -16 -28 15 -2 16 5 34 17 46 26 26 41 27 41 2z m485
-21 c50 -25 63 -47 41 -68 -15 -15 -16 -15 -16 5 0 28 -25 49 -34 28 -3 -8
-10 -15 -15 -15 -6 0 -8 6 -5 14 3 8 -3 19 -16 26 -11 6 -18 15 -15 21 9 13
16 12 60 -11z m-562 -12 c-3 -13 -15 -36 -29 -53 l-24 -30 0 26 c0 26 33 79
49 79 5 0 6 -10 4 -22z m487 -96 c0 -12 -7 -25 -15 -28 -13 -5 -13 -8 0 -21
12 -11 13 -19 3 -36 l-12 -22 -6 24 c-3 13 -14 27 -24 31 -13 4 -20 18 -22 45
l-3 40 23 -29 c13 -17 26 -25 29 -19 4 5 -5 21 -18 33 -14 13 -25 31 -25 41 0
10 -5 21 -10 24 -6 4 -7 11 -4 17 10 15 83 -73 84 -100z m-552 28 c0 -33 -4
-62 -8 -65 -13 -8 -21 44 -11 63 6 11 6 24 0 33 -13 20 -11 29 5 29 10 0 14
-15 14 -60z m598 12 c-3 -2 1 -11 9 -18 8 -8 12 -21 9 -29 -8 -19 -24 -19 -24
0 0 8 -9 20 -19 27 -15 9 -17 16 -10 31 8 15 13 16 25 6 8 -6 12 -14 10 -17z
m-473 -43 c-17 -21 -17 -33 2 -25 11 4 15 -2 15 -23 0 -16 -7 -34 -15 -41 -8
-7 -15 -17 -15 -22 0 -6 7 -5 15 2 23 19 29 5 10 -23 -15 -24 -15 -26 1 -35
12 -6 13 -11 5 -16 -26 -17 -41 15 -38 80 2 35 -1 64 -5 64 -14 0 -9 37 10 69
16 30 17 30 23 8 3 -12 0 -29 -8 -38z m-43 30 c0 -17 -43 -68 -52 -63 -11 7 0
44 20 66 15 17 32 16 32 -3z m566 -6 c18 -24 17 -40 -2 -47 -10 -4 -14 -1 -11
6 2 7 0 23 -4 36 -10 26 -1 29 17 5z m-291 -13 c10 -11 24 -20 32 -20 7 0 18
-11 23 -24 5 -13 18 -27 30 -31 25 -8 24 -48 -2 -53 -12 -2 -15 2 -12 15 4 14
-6 26 -33 43 -20 14 -43 36 -50 50 -13 25 -13 25 -13 2 0 -14 -9 -27 -26 -34
-17 -8 -24 -18 -21 -30 8 -29 -20 -21 -31 10 l-10 27 -7 -33 c-4 -18 -16 -37
-26 -43 -11 -5 -19 -14 -19 -20 0 -5 14 -3 30 6 28 15 30 14 30 -3 0 -10 -9
-27 -20 -37 -23 -21 -26 -40 -5 -32 8 4 17 2 20 -3 11 -17 -37 -23 -53 -6 -14
13 -14 20 -4 36 9 16 9 18 -2 14 -24 -9 -28 27 -6 51 11 12 20 26 20 31 0 8
37 37 50 39 22 4 50 18 46 23 -7 6 23 42 34 42 4 0 15 -9 25 -20z m-130 -11
c9 -27 -52 -89 -62 -64 -5 15 35 85 49 85 4 0 10 -9 13 -21z m381 -68 c-5 -8
-15 -6 -31 6 -17 14 -20 21 -12 31 8 11 14 9 30 -6 11 -11 16 -25 13 -31z
m-523 23 c7 -7 -13 -54 -24 -54 -15 0 -20 20 -9 40 11 20 22 25 33 14z m567
-10 c11 -12 10 -18 -3 -32 -16 -15 -17 -15 -17 0 0 9 -3 23 -6 32 -8 20 10 21
26 0z m-763 -16 c27 -26 30 -53 6 -67 -10 -5 -14 -13 -10 -17 14 -15 42 13 40
40 -2 29 8 33 27 11 17 -20 3 -54 -25 -61 -14 -3 -23 -10 -22 -16 1 -5 -8 -17
-20 -25 -13 -9 -23 -11 -23 -5 0 6 5 14 10 17 6 3 10 10 10 16 0 12 -41 -11
-58 -34 -7 -9 -18 -15 -24 -11 -6 4 -6 10 1 17 7 7 7 14 -1 24 -15 19 -2 29
17 13 25 -20 44 4 22 27 -9 11 -13 24 -8 31 6 10 11 10 21 -3 7 -8 16 -15 21
-15 18 0 8 29 -16 48 -23 18 -24 32 -1 32 5 0 20 -10 33 -22z m138 -17 c5 -17
4 -22 -6 -19 -8 3 -15 18 -17 34 -4 33 11 24 23 -15z m368 6 c9 -8 17 -21 17
-30 0 -9 9 -19 20 -22 26 -8 26 -40 -1 -58 -11 -9 -16 -16 -9 -19 13 -4 3 -38
-12 -38 -6 0 -8 6 -5 14 3 8 -2 16 -14 19 -10 3 -21 12 -24 21 -17 52 -14 50
-36 30 -30 -27 -44 -55 -24 -48 21 8 19 -3 -3 -15 -10 -5 -24 -6 -31 -2 -18
12 -3 61 19 61 10 0 24 10 32 22 14 21 15 21 46 2 18 -10 32 -22 32 -26 0 -4
5 -8 10 -8 20 0 9 31 -14 41 -14 7 -27 22 -30 35 -6 22 -9 23 -29 13 -29 -16
-38 -30 -31 -51 4 -12 0 -18 -11 -18 -23 0 -30 28 -11 49 9 10 16 22 16 28 0
5 10 15 23 20 22 11 35 7 70 -20z m95 21 c7 -7 12 -20 12 -30 0 -10 6 -18 14
-18 8 0 22 -10 31 -22 17 -23 17 -23 11 7 -8 40 6 61 20 31 12 -27 1 -66 -19
-66 -8 0 -19 10 -25 23 l-11 22 0 -22 c-2 -41 -61 -49 -61 -9 0 6 5 5 12 -2
18 -18 32 -14 17 5 -8 9 -14 26 -15 37 -1 12 -5 29 -9 39 -8 20 5 23 23 5z
m-404 -75 c-9 -36 -13 -40 -24 -23 -5 8 -5 21 1 32 15 28 30 22 23 -9z m546
14 c0 -14 -20 -37 -32 -37 -4 0 -2 11 4 25 12 27 28 34 28 12z m-586 -23 c4
-9 4 -19 2 -21 -8 -8 -26 8 -26 23 0 19 16 18 24 -2z m522 -46 c4 -7 11 -42
14 -78 l7 -65 2 68 c1 72 16 89 27 32 13 -70 -23 -316 -48 -331 -11 -7 -8 78
7 191 3 22 -4 4 -15 -40 -24 -97 -24 -136 -4 -195 10 -29 14 -62 11 -92 -5
-36 -2 -48 10 -52 13 -5 14 -4 3 9 -7 9 -11 18 -8 20 11 11 32 -29 31 -59 -1
-24 3 -32 17 -32 17 0 17 3 4 28 -13 25 -13 28 1 28 9 0 21 -13 26 -30 6 -16
17 -30 24 -30 8 0 16 -10 18 -22 4 -20 4 -19 6 5 1 30 15 36 25 11 13 -35 7
-44 -34 -44 -34 0 -40 3 -41 23 -2 22 -2 22 -6 -1 -4 -22 -5 -23 -19 -5 -11
14 -13 14 -8 2 4 -13 -2 -16 -28 -15 -18 1 -36 6 -40 11 -5 6 -8 5 -8 -2 0
-21 -18 -14 -26 9 l-7 23 -10 -25 c-10 -25 -10 -25 -14 -2 -3 12 -9 22 -14 22
-6 0 -7 -9 -4 -20 5 -14 2 -20 -9 -20 -13 0 -16 9 -13 46 1 25 7 48 13 52 6 4
8 30 4 67 -7 58 -7 58 -9 15 -3 -54 -24 -119 -34 -103 -4 6 -3 23 3 38 5 14
10 49 10 76 0 27 10 87 21 132 19 70 21 99 16 200 -6 108 -5 117 12 117 10 0
28 11 41 25 26 28 35 31 46 13z m-71 -8 c3 -5 -1 -10 -9 -10 -8 0 -18 5 -21
10 -3 6 1 10 9 10 8 0 18 -4 21 -10z m-425 -107 c-1 -77 -3 -103 -11 -91 -13
23 -23 139 -15 172 14 58 26 22 26 -81z m283 94 c7 -19 -3 -67 -14 -67 -15 0
-22 27 -15 55 7 27 21 33 29 12z m-486 -165 c2 -109 1 -115 -12 -85 -16 36
-31 183 -21 209 5 14 9 15 19 5 8 -8 13 -53 14 -129z m513 102 c0 -8 -5 -12
-10 -9 -6 4 -8 11 -5 16 9 14 15 11 15 -7z m76 -152 c-6 -68 -21 -109 -30 -82
-18 53 -26 104 -26 167 0 60 3 72 18 75 25 5 45 -79 38 -160z m170 -183 c7
-30 14 -70 14 -91 0 -31 3 -35 20 -31 18 5 18 7 5 26 -8 12 -15 35 -14 52 l1
30 14 -34 c9 -19 17 -47 19 -62 2 -16 6 -33 10 -39 3 -5 2 -18 -4 -27 -8 -16
-11 -14 -22 10 -8 17 -24 30 -43 35 -28 7 -32 13 -37 57 -5 44 9 141 18 131 2
-2 11 -28 19 -57z m-628 -133 c2 -19 0 -26 -8 -21 -6 4 -9 14 -6 22 3 8 1 11
-4 8 -6 -3 -10 1 -10 10 0 28 25 10 28 -19z m-68 -143 c-1 -18 -30 -44 -45
-41 -14 3 -14 5 0 26 15 21 45 31 45 15z m97 -18 c-12 -26 -47 -35 -47 -12 0
18 21 37 41 37 15 0 15 -4 6 -25z m527 3 c17 -28 -4 -35 -26 -8 -11 14 -17 19
-13 13 8 -17 -6 -16 -30 3 -19 14 -18 15 19 12 23 -2 43 -10 50 -20z m88 5
c10 -9 18 -20 18 -25 0 -14 -22 -9 -42 9 -18 16 -18 16 -12 0 10 -27 -21 -21
-40 8 l-16 25 36 0 c21 0 46 -7 56 -17z m104 -4 c24 -26 9 -37 -18 -13 -19 17
-21 17 -15 2 10 -27 -25 -23 -52 5 l-22 24 45 0 c32 1 50 -4 62 -18z m42 9 c7
-7 12 -18 12 -25 0 -22 -26 -14 -38 12 -9 20 -9 25 1 25 7 0 18 -5 25 -12z
m55 -16 c16 -17 14 -32 -4 -32 -3 0 -14 11 -23 25 -13 20 -14 25 -3 25 8 0 21
-8 30 -18z m126 -6 c8 -9 8 -16 2 -20 -6 -4 -15 3 -21 14 -12 23 2 27 19 6z
m41 -11 c0 -8 -6 -15 -13 -15 -8 0 -14 7 -14 15 0 8 6 15 14 15 7 0 13 -7 13
-15z m-850 -13 c0 -5 -8 -17 -19 -26 -17 -16 -19 -16 -24 3 -2 11 -2 22 1 25
9 9 42 7 42 -2z m850 -413 c0 -6 -4 -7 -10 -4 -5 3 -10 1 -10 -6 0 -7 -3 -9
-7 -6 -3 4 -12 2 -20 -4 -10 -9 -13 -8 -13 5 0 10 5 14 10 11 6 -3 10 -2 10 2
0 5 9 9 20 10 11 1 20 -3 20 -8z m-1233 -24 c0 -8 -6 -15 -14 -15 -14 0 -17
12 -6 23 11 11 20 8 20 -8z m445 9 c3 -2 4 -13 1 -24 -7 -25 -33 -27 -34 -2
-1 15 -2 15 -6 0 -3 -12 -15 -17 -44 -16 -45 0 -60 15 -34 34 16 12 100 17
117 8z m-292 -19 c0 -8 -7 -15 -15 -15 -8 0 -15 7 -15 15 0 8 7 15 15 15 8 0
15 -7 15 -15z m369 -1 c2 -2 1 -15 -3 -29 -6 -24 -36 -36 -36 -15 0 6 8 10 18
10 13 0 14 2 3 9 -7 5 -22 6 -32 4 -19 -5 -27 16 -13 30 6 6 53 -1 63 -9z
m416 -4 c0 -24 -32 -24 -38 0 -4 17 -1 21 16 18 12 -2 22 -10 22 -18z m35 0
c0 -11 -4 -20 -9 -20 -5 0 -11 9 -14 20 -3 13 0 20 9 20 8 0 14 -9 14 -20z
m40 0 c0 -11 -4 -20 -10 -20 -5 0 -10 2 -10 4 0 2 -3 11 -6 20 -4 11 -1 16 10
16 9 0 16 -8 16 -20z m-540 -57 c0 -21 2 -23 15 -13 16 13 35 6 35 -14 0 -20
-62 -27 -80 -9 -13 13 -13 16 4 29 19 14 19 14 -2 14 -18 0 -22 -6 -22 -30 0
-20 -5 -30 -15 -30 -24 0 -31 31 -10 46 16 12 16 14 3 14 -9 0 -21 -14 -27
-31 -12 -34 -34 -35 -39 -1 -3 17 2 22 17 22 12 0 20 3 20 8 -3 15 2 17 51 18
47 2 50 0 50 -23z m200 17 c0 -5 -4 -10 -10 -10 -5 0 -10 5 -10 10 0 6 5 10
10 10 6 0 10 -4 10 -10z m40 0 c0 -5 -7 -10 -16 -10 -8 0 -12 5 -9 10 3 6 10
10 16 10 5 0 9 -4 9 -10z m40 0 c0 -5 -7 -10 -16 -10 -8 0 -12 5 -9 10 3 6 10
10 16 10 5 0 9 -4 9 -10z m30 0 c0 -5 -4 -10 -10 -10 -5 0 -10 5 -10 10 0 6 5
10 10 10 6 0 10 -4 10 -10z m40 0 c0 -5 -7 -10 -15 -10 -8 0 -15 5 -15 10 0 6
7 10 15 10 8 0 15 -4 15 -10z m30 0 c0 -5 -4 -10 -10 -10 -5 0 -10 5 -10 10 0
6 5 10 10 10 6 0 10 -4 10 -10z m30 0 c0 -5 -4 -10 -10 -10 -5 0 -10 5 -10 10
0 6 5 10 10 10 6 0 10 -4 10 -10z m30 0 c0 -5 -4 -10 -10 -10 -5 0 -10 5 -10
10 0 6 5 10 10 10 6 0 10 -4 10 -10z m30 0 c0 -5 -4 -10 -10 -10 -5 0 -10 5
-10 10 0 6 5 10 10 10 6 0 10 -4 10 -10z m70 6 c0 -2 -13 -6 -30 -8 -16 -3
-30 -1 -30 4 0 4 14 8 30 8 17 0 30 -2 30 -4z m43 -3 c-7 -2 -19 -2 -25 0 -7
3 -2 5 12 5 14 0 19 -2 13 -5z m-923 -11 c0 -11 -76 -10 -86 1 -4 4 14 7 39 7
26 0 47 -4 47 -8z m30 -29 c0 -34 -1 -36 -16 -21 -10 10 -14 23 -9 37 10 34
25 24 25 -16z m30 27 c0 -5 5 -10 11 -10 5 0 7 5 4 10 -3 6 -2 10 2 10 5 0 9
-16 9 -35 0 -22 -5 -35 -13 -35 -7 0 -13 1 -13 3 0 1 -4 17 -9 35 -6 20 -6 32
0 32 5 0 9 -4 9 -10z m65 0 c-3 -5 -2 -10 2 -10 5 0 10 -11 11 -25 1 -16 -3
-25 -13 -25 -16 0 -17 2 -20 43 -1 17 3 27 12 27 8 0 11 -4 8 -10z m35 0 c0
-5 -2 -10 -4 -10 -3 0 -8 5 -11 10 -3 6 -1 10 4 10 6 0 11 -4 11 -10z m30 -25
c0 -25 -4 -35 -15 -35 -23 0 -31 31 -12 45 9 7 14 15 10 18 -3 4 -1 7 5 7 7 0
12 -15 12 -35z m730 5 c0 -11 -6 -20 -14 -20 -9 0 -12 7 -9 20 3 11 9 20 14
20 5 0 9 -9 9 -20z m-490 -10 c0 -11 -7 -20 -15 -20 -15 0 -21 21 -8 33 12 13
23 7 23 -13z m39 3 c10 -17 10 -17 11 0 0 10 8 17 20 17 13 0 20 -7 20 -20 0
-17 -7 -20 -40 -20 -33 0 -40 3 -40 20 0 25 16 26 29 3z m99 -6 c2 -12 -3 -17
-17 -17 -15 0 -21 6 -21 21 0 25 33 22 38 -4z m42 3 c0 -11 -6 -20 -14 -20 -7
0 -16 9 -19 20 -4 15 0 20 14 20 12 0 19 -7 19 -20z m38 -3 c2 -10 -3 -17 -12
-17 -10 0 -16 9 -16 21 0 24 23 21 28 -4z m52 3 c0 -13 -7 -20 -20 -20 -13 0
-20 7 -20 20 0 13 7 20 20 20 13 0 20 -7 20 -20z m50 0 c0 -11 -6 -20 -14 -20
-7 0 -16 9 -19 20 -4 15 0 20 14 20 12 0 19 -7 19 -20z m48 3 c-5 -26 -37 -29
-35 -4 1 13 8 21 20 21 12 0 17 -6 15 -17z m68 6 c3 -6 0 -15 -7 -20 -22 -14
-29 -11 -29 11 0 21 24 27 36 9z m-892 -14 c3 -9 0 -15 -9 -15 -8 0 -15 7 -15
15 0 8 4 15 9 15 5 0 11 -7 15 -15z"/>
<path d="M320 2546 c0 -2 8 -10 18 -17 15 -13 16 -12 3 4 -13 16 -21 21 -21
13z"/>
<path d="M532 2496 c11 -25 10 -30 -7 -43 -20 -15 -20 -15 0 -11 25 4 31 37
10 63 -14 19 -15 18 -3 -9z"/>
<path d="M351 2498 c0 -9 -13 -26 -27 -37 -17 -13 -21 -21 -12 -21 22 0 50 36
45 57 -4 15 -5 15 -6 1z"/>
<path d="M450 2480 c20 -13 63 -13 55 0 -3 6 -21 10 -38 10 -24 0 -28 -3 -17
-10z"/>
<path d="M520 2413 c11 -18 12 -24 1 -37 -18 -21 -33 -20 -29 1 3 15 -40 48
-50 38 -6 -6 55 -65 66 -65 20 0 19 -25 -1 -47 -18 -20 -18 -23 -3 -23 9 0 19
7 23 16 4 12 9 10 24 -13 26 -39 24 -19 -3 28 -18 32 -19 43 -10 63 9 20 7 27
-10 43 -21 18 -21 18 -8 -4z"/>
<path d="M420 2258 c0 -9 42 -28 62 -28 7 0 7 5 -1 14 -14 16 -61 27 -61 14z"/>
<path d="M391 2238 c-1 -15 -9 -32 -18 -37 -16 -9 -16 -10 -1 -11 9 0 18 6 21
13 3 9 8 8 18 -4 16 -19 59 -35 59 -22 0 4 -15 15 -33 23 -18 9 -34 25 -38 40
l-7 25 -1 -27z"/>
<path d="M508 2228 c-17 -17 -11 -24 16 -19 5 1 13 -4 17 -11 7 -10 9 -10 9 2
-1 8 -6 22 -13 30 -11 14 -14 14 -29 -2z"/>
<path d="M522 2140 c0 -14 2 -19 5 -12 2 6 2 18 0 25 -3 6 -5 1 -5 -13z"/>
<path d="M1096 2307 c3 -10 9 -15 12 -12 3 3 0 11 -7 18 -10 9 -11 8 -5 -6z"/>
<path d="M870 2185 c0 -8 4 -15 8 -15 5 0 9 7 9 15 0 8 -4 15 -9 15 -4 0 -8
-7 -8 -15z"/>
<path d="M891 1916 c5 -23 63 -61 79 -51 14 9 -7 35 -28 35 -8 0 -24 8 -35 18
-18 16 -19 16 -16 -2z"/>
<path d="M1053 1963 c9 -9 20 -13 24 -9 4 4 1 11 -7 16 -25 16 -35 11 -17 -7z"/>
<path d="M1022 1235 c0 -16 2 -22 5 -12 2 9 2 23 0 30 -3 6 -5 -1 -5 -18z"/>
<path d="M1011 1184 c0 -11 3 -14 6 -6 3 7 2 16 -1 19 -3 4 -6 -2 -5 -13z"/>
<path d="M1048 1100 c2 -47 6 -87 8 -89 1 -1 6 13 10 33 4 23 1 57 -9 89 l-15
52 6 -85z"/>
<path d="M1095 1040 c4 -6 1 -18 -6 -26 -10 -12 -10 -15 1 -12 7 2 19 -8 27
-22 10 -19 13 -21 13 -7 0 19 -27 77 -36 77 -3 0 -2 -5 1 -10z"/>
<path d="M1086 982 c-3 -5 1 -9 9 -9 8 0 12 4 9 9 -3 4 -7 8 -9 8 -2 0 -6 -4
-9 -8z"/>
<path d="M1029 2763 c-12 -16 -12 -17 1 -7 8 6 22 14 30 17 13 5 12 6 -1 6 -9
1 -23 -7 -30 -16z"/>
<path d="M1077 2745 c-18 -13 -18 -14 0 -23 15 -8 18 -6 18 14 0 13 0 24 0 24
0 0 -8 -7 -18 -15z"/>
<path d="M770 2734 c0 -8 5 -12 10 -9 6 4 8 11 5 16 -9 14 -15 11 -15 -7z"/>
<path d="M673 2725 c0 -8 4 -15 9 -15 4 0 8 7 8 15 0 8 -4 15 -8 15 -5 0 -9
-7 -9 -15z"/>
<path d="M710 2721 c0 -12 -9 -30 -20 -39 -22 -19 -42 -91 -22 -78 7 4 12 20
12 36 0 24 8 34 40 52 42 24 47 32 28 44 -7 4 -8 3 -4 -4 9 -16 -7 -15 -22 0
-9 9 -12 7 -12 -11z"/>
<path d="M749 2663 c-11 -15 -11 -16 1 -5 21 18 58 15 70 -7 16 -31 12 -61 -7
-62 -14 0 -13 -2 5 -9 12 -5 22 -17 22 -26 0 -10 -5 -14 -14 -11 -10 4 -13 1
-10 -8 3 -8 21 -19 40 -25 49 -16 94 2 95 39 l1 26 8 -25 c8 -25 8 -25 9 -2 1
14 6 22 14 19 6 -2 11 -16 10 -31 -1 -14 2 -24 8 -21 5 4 9 17 9 31 0 14 6 24
14 24 7 0 20 8 27 18 11 14 11 15 -1 5 -8 -7 -33 -13 -57 -13 -39 0 -43 2 -43
25 0 34 36 68 66 62 13 -2 21 0 18 4 -11 18 -61 9 -83 -15 -19 -20 -22 -31
-16 -64 6 -35 4 -41 -15 -47 -34 -11 -73 3 -67 23 19 59 19 61 -7 86 -30 30
-77 34 -97 9z"/>
<path d="M1390 2653 c-57 -23 -99 -83 -59 -83 10 0 19 6 19 14 0 25 50 56 91
56 28 0 42 -6 54 -22 8 -13 18 -22 20 -20 14 7 16 0 4 -15 -13 -16 -12 -17 3
-5 24 19 33 -3 13 -34 -13 -20 -22 -24 -41 -20 -19 5 -24 3 -24 -13 0 -25 33
-21 64 7 21 19 22 19 86 -2 58 -19 66 -25 77 -56 l12 -35 0 31 c1 39 -21 59
-82 75 -39 9 -50 17 -61 44 -8 18 -28 42 -46 55 -32 23 -101 35 -130 23z"/>
<path d="M755 2640 c-3 -6 1 -7 10 -4 9 4 25 -2 37 -12 21 -19 21 -19 9 4 -12
22 -45 30 -56 12z"/>
<path d="M1010 2643 c8 -3 22 -11 30 -17 13 -10 13 -9 1 7 -7 9 -21 17 -30 16
-13 0 -14 -1 -1 -6z"/>
<path d="M720 2620 c-9 -6 -10 -10 -3 -10 6 0 15 5 18 10 8 12 4 12 -15 0z"/>
<path d="M975 2619 c-4 -6 -5 -12 -2 -15 2 -3 7 2 10 11 7 17 1 20 -8 4z"/>
<path d="M740 2580 c8 -5 22 -10 32 -10 12 0 9 -7 -13 -31 -47 -50 -35 -84 32
-94 32 -5 32 -5 6 4 -37 12 -57 30 -57 49 0 12 5 10 24 -7 17 -16 32 -21 52
-18 28 4 28 4 -4 6 -24 1 -35 7 -44 26 -6 14 -8 28 -3 33 4 4 10 1 12 -6 6
-17 32 -42 44 -42 5 0 0 9 -12 21 -12 12 -18 27 -14 39 7 21 2 25 -40 34 -22
5 -26 4 -15 -4z"/>
<path d="M646 2545 c4 -16 11 -35 16 -42 5 -6 7 -33 5 -60 -3 -26 -2 -39 0
-29 4 16 7 17 15 5 7 -10 8 -7 4 12 -4 17 -1 31 9 39 22 18 19 26 -21 67 l-35
38 7 -30z"/>
<path d="M1030 2528 c0 -31 -17 -48 -49 -49 -25 -2 -25 -2 -3 -6 16 -3 32 3
48 18 25 24 41 21 31 -6 -11 -27 -54 -40 -97 -28 -22 5 -37 6 -34 2 7 -13 71
-22 99 -15 14 4 31 17 37 31 9 19 7 28 -11 51 l-21 27 0 -25z"/>
<path d="M1280 2526 c-42 -18 -77 -46 -58 -46 9 0 18 7 22 15 3 8 16 15 30 15
14 0 28 5 31 11 10 16 3 17 -25 5z"/>
<path d="M1440 2480 c0 -5 -8 -10 -18 -10 -25 0 -42 -19 -42 -47 0 -26 -21
-30 -40 -8 -11 13 -14 13 -24 1 -6 -8 -22 -16 -36 -18 -14 -2 -24 -9 -22 -16
3 -18 -26 -14 -38 6 -8 13 -9 4 -5 -36 5 -40 2 -59 -9 -77 -21 -31 -21 -46 0
-17 8 12 19 22 25 22 15 0 10 -66 -6 -80 -8 -7 -15 -20 -15 -29 1 -13 5 -11
19 7 11 12 22 22 25 22 13 0 5 -48 -9 -60 -8 -7 -15 -24 -15 -39 l1 -26 17 28
c29 47 45 27 17 -23 -8 -14 -14 -34 -14 -45 -1 -15 4 -11 15 13 9 17 20 32 25
32 15 0 10 -34 -11 -75 -22 -42 -19 -84 5 -98 26 -14 29 -67 6 -98 -28 -38 -6
-53 24 -16 11 15 24 27 28 27 14 0 7 -51 -8 -56 -17 -7 -20 -39 -6 -49 5 -3
18 8 27 25 10 16 22 30 26 30 13 0 9 -29 -7 -54 -15 -22 -12 -56 4 -56 4 0 16
18 27 39 14 29 22 37 31 29 10 -8 7 -19 -10 -49 -19 -34 -20 -41 -7 -49 11 -7
11 -10 2 -10 -19 0 -82 50 -82 65 0 7 -9 15 -20 18 -12 3 -20 14 -20 26 0 12
-8 25 -17 28 -10 4 -22 11 -26 17 -5 6 -6 1 -3 -13 3 -14 0 -31 -6 -38 -6 -7
-8 -31 -5 -53 4 -30 2 -40 -9 -40 -8 0 -14 10 -15 23 l0 22 -11 -22 c-10 -20
-5 -28 35 -68 57 -55 69 -97 69 -225 0 -79 2 -87 8 -50 5 25 9 84 9 133 1 89
12 111 32 60 10 -27 7 -143 -7 -241 -6 -41 9 -111 37 -181 8 -20 7 -22 -8 -17
-12 5 -15 4 -8 -3 6 -5 29 -16 53 -24 33 -12 40 -12 32 -2 -9 10 -6 14 12 18
13 2 5 5 -19 6 l-41 1 -28 82 -27 81 17 86 c9 47 16 108 16 136 0 49 22 126
45 155 6 8 20 33 30 55 10 22 26 46 37 53 10 7 18 23 18 36 0 12 4 26 9 32 10
10 33 99 33 129 0 57 -14 141 -27 155 -8 9 -15 23 -15 30 0 7 -7 21 -16 31
-18 20 -12 53 9 47 6 -3 14 -13 16 -24 10 -57 44 -57 96 1 22 25 66 72 98 104
31 32 57 65 57 73 0 18 -60 101 -68 93 -3 -3 4 -15 15 -28 34 -37 45 -65 30
-74 -8 -4 -17 -17 -21 -27 -6 -18 -8 -18 -34 5 -20 18 -22 19 -9 3 21 -26 22
-38 1 -30 -8 3 -12 2 -9 -4 13 -21 -7 -31 -26 -14 -21 19 -26 40 -7 28 7 -5 8
-2 3 7 -15 27 -49 59 -61 59 -16 0 -44 -39 -43 -60 0 -13 1 -13 6 0 8 20 34
50 45 50 5 0 0 -12 -9 -27 -10 -15 -13 -24 -7 -20 6 3 20 0 30 -8 18 -12 16
-13 -15 -12 -20 1 -35 -3 -37 -11 -1 -7 0 -8 3 -2 8 16 31 12 42 -7 6 -10 11
-12 11 -5 0 19 24 14 37 -7 10 -16 9 -23 -7 -41 -16 -19 -22 -21 -35 -10 -20
16 -32 5 -16 -14 7 -8 10 -20 6 -26 -12 -19 -44 -10 -57 17 -7 15 -22 29 -33
32 -28 5 -34 18 -28 62 4 25 2 39 -6 39 -6 0 -11 -9 -11 -20 0 -13 -13 -28
-35 -41 -34 -20 -47 -49 -23 -49 9 0 9 -3 0 -12 -8 -8 -15 -8 -27 2 -22 18
-19 36 15 72 37 38 37 41 4 26 -22 -11 -28 -10 -40 7 -17 23 -18 40 -4 66 9
16 15 17 31 8 11 -6 28 -7 37 -3 14 5 13 8 -8 13 -19 5 -26 14 -28 36 -2 24 3
33 28 47 16 9 30 24 30 33 0 8 -2 15 -5 15 -3 0 -5 -4 -5 -10z m-80 -100 l25
-1 -23 -19 c-13 -11 -41 -24 -63 -30 -21 -6 -39 -16 -39 -22 0 -10 16 -8 53 7
13 5 17 2 17 -14 0 -12 1 -24 1 -28 1 -5 -9 -14 -22 -20 -13 -7 -23 -17 -21
-23 1 -5 -5 -10 -13 -10 -24 0 -29 29 -10 50 17 19 17 20 -3 20 -29 0 -39 36
-16 61 25 27 67 47 79 37 5 -4 20 -8 35 -8z m280 -91 c0 -5 -9 -4 -19 3 -11 7
-17 16 -14 20 5 10 33 -10 33 -23z m-277 -46 c8 -15 -9 -44 -33 -56 -13 -7
-25 -19 -27 -27 -3 -10 -2 -11 4 -4 17 24 73 18 73 -7 0 -5 -11 -14 -25 -19
-14 -5 -25 -14 -25 -19 0 -10 39 -3 57 11 14 11 27 -7 17 -24 -4 -7 -16 -19
-26 -26 -10 -7 -18 -22 -18 -32 0 -17 4 -15 29 11 29 30 51 32 51 4 0 -8 -9
-19 -20 -25 -19 -10 -29 -50 -12 -50 5 0 19 14 31 31 22 29 24 30 40 14 15
-15 14 -18 -11 -39 -27 -21 -38 -56 -18 -56 6 0 10 3 10 8 0 4 12 20 26 36 36
41 50 20 17 -27 -30 -42 -26 -60 6 -28 12 12 26 21 31 21 17 0 11 -26 -10 -45
-24 -22 -26 -35 -5 -35 8 0 15 -4 15 -10 0 -17 -40 -11 -47 8 -4 9 -44 55 -90
101 -46 46 -83 90 -83 98 0 8 -11 37 -25 65 -29 57 -31 74 -10 82 8 3 15 12
15 20 0 19 54 35 63 19z m104 -71 c-9 -10 -17 -26 -19 -37 -2 -16 3 -20 22
-20 21 0 25 -4 22 -27 -2 -20 3 -28 19 -33 15 -5 18 -10 11 -17 -13 -13 -62
15 -62 35 0 7 -9 18 -20 25 -26 16 -26 56 0 82 25 25 49 16 27 -8z m-137 -174
c0 -6 -7 -19 -16 -29 -9 -10 -13 -23 -9 -28 10 -18 21 -13 34 16 12 26 13 26
23 9 8 -15 7 -27 -7 -52 -17 -33 -15 -64 5 -64 5 0 10 9 10 19 0 11 5 23 10
26 6 3 10 15 10 26 0 28 19 23 26 -6 4 -17 1 -32 -10 -44 -18 -20 -22 -66 -6
-76 6 -3 10 1 10 9 0 9 9 30 20 48 16 27 20 29 26 14 4 -10 -1 -33 -10 -53 -9
-19 -13 -39 -10 -45 9 -14 43 30 44 55 0 10 6 17 13 15 20 -7 19 -33 -3 -58
-19 -22 -20 -25 -5 -36 10 -8 12 -14 6 -18 -11 -7 -71 32 -71 46 0 4 -7 8 -15
8 -8 0 -23 12 -32 27 -10 15 -28 37 -40 50 -13 12 -23 28 -23 36 0 8 -6 20
-14 26 -23 20 -25 49 -4 76 19 24 38 26 38 3z m-40 -286 c0 -10 -5 -23 -12
-30 -20 -20 7 -40 32 -24 17 10 20 10 20 -3 0 -8 -4 -15 -10 -15 -5 0 -10 -7
-10 -15 0 -18 4 -18 48 -6 35 10 40 3 20 -29 -11 -17 -10 -22 2 -30 8 -5 11
-12 7 -17 -11 -10 -42 11 -42 28 0 8 -11 16 -25 19 -16 3 -26 13 -28 28 -2 12
-10 22 -17 22 -20 0 -27 34 -14 64 14 30 29 34 29 8z m-12 -106 c3 -12 -1 -17
-10 -14 -7 3 -15 13 -16 22 -3 12 1 17 10 14 7 -3 15 -13 16 -22z m47 -37 c10
-15 -1 -23 -20 -15 -9 3 -13 10 -10 16 8 13 22 13 30 -1z"/>
<path d="M1480 2458 c0 -20 -7 -28 -30 -37 -30 -10 -40 -34 -18 -47 6 -4 8 -3
4 4 -6 10 33 46 42 37 2 -2 1 -22 -3 -44 -6 -36 -11 -42 -51 -57 -24 -9 -41
-20 -39 -24 6 -9 44 -2 61 11 6 5 24 6 40 3 21 -4 37 0 54 15 l25 20 -38 -6
-38 -6 3 44 3 44 47 0 c31 0 44 3 37 10 -5 6 -24 10 -42 10 -23 0 -35 6 -44
25 l-13 25 0 -27z"/>
<path d="M1649 2463 c-37 -45 -43 -58 -16 -33 22 19 30 22 36 11 7 -10 10 -10
16 -1 4 7 1 18 -7 26 -12 13 -16 12 -29 -3z"/>
<path d="M107 2463 c-4 -3 -7 -14 -7 -23 0 -11 8 -15 28 -14 57 3 56 3 37 24
-18 20 -46 26 -58 13z m38 -14 c10 -14 1 -21 -19 -13 -9 3 -13 10 -10 15 7 12
21 11 29 -2z"/>
<path d="M869 2443 c-16 -18 -70 -43 -94 -43 -9 0 -26 11 -38 24 l-23 24 4
-34 c3 -26 10 -36 29 -40 13 -4 28 -16 33 -28 8 -18 9 -17 9 12 1 40 20 42 43
2 31 -55 100 -53 139 5 26 37 39 44 39 20 0 -27 30 -14 49 22 16 32 14 36 -11
19 -33 -23 -80 -19 -122 9 -44 30 -40 29 -57 8z m71 -56 c0 -5 5 -5 10 -2 23
14 8 -26 -15 -41 -34 -22 -89 -8 -93 23 -4 29 43 53 75 38 13 -5 23 -14 23
-18z"/>
<path d="M881 2372 c-1 -8 -6 -10 -13 -6 -10 5 -10 4 -1 -6 15 -16 28 -8 20
12 -4 11 -6 11 -6 0z"/>
<path d="M747 2429 c7 -7 15 -10 18 -7 3 3 -2 9 -12 12 -14 6 -15 5 -6 -5z"/>
<path d="M1661 2406 c-9 -10 -8 -15 2 -19 8 -3 13 3 13 14 0 23 0 23 -15 5z"/>
<path d="M1643 2366 c7 -14 15 -26 20 -26 13 0 7 17 -13 35 -19 17 -19 17 -7
-9z"/>
<path d="M135 2361 c-3 -6 10 -7 32 -4 50 8 55 13 10 13 -20 0 -38 -4 -42 -9z"/>
<path d="M220 2350 c-23 -7 -23 -8 -3 -9 12 -1 25 4 28 9 3 6 5 10 3 9 -2 -1
-14 -5 -28 -9z"/>
<path d="M991 2334 c0 -11 3 -14 6 -6 3 7 2 16 -1 19 -3 4 -6 -2 -5 -13z"/>
<path d="M131 2298 c-17 -23 -31 -47 -31 -52 0 -6 5 -4 10 4 9 13 11 13 19 1
7 -12 13 -12 24 -3 7 7 18 8 22 4 5 -4 5 -2 1 5 -3 6 0 13 8 15 12 2 12 6 2
21 -12 15 -15 16 -26 2 -11 -13 -10 -14 6 -9 18 6 18 6 2 -11 -10 -10 -23 -15
-33 -11 -15 5 -14 9 7 35 13 17 26 30 30 30 12 1 67 -82 61 -93 -3 -6 0 -5 7
1 11 11 10 17 -7 35 -11 13 -26 33 -32 46 -17 32 -35 27 -70 -20z"/>
<path d="M1681 2337 c2 -1 15 -11 28 -22 l24 -20 -12 23 c-6 12 -19 22 -28 22
-9 0 -14 -1 -12 -3z"/>
<path d="M1522 2252 c-7 -5 -10 -16 -6 -25 7 -20 39 -31 56 -21 9 6 5 10 -12
14 -15 4 -24 13 -24 23 1 9 1 17 0 17 0 0 -7 -4 -14 -8z"/>
<path d="M1630 2209 c0 -5 5 -7 10 -4 6 3 10 8 10 11 0 2 -4 4 -10 4 -5 0 -10
-5 -10 -11z"/>
<path d="M205 2200 c-16 -7 -17 -9 -3 -9 9 -1 20 4 23 9 7 11 7 11 -20 0z"/>
<path d="M1257 1841 c-19 -32 -21 -41 -9 -41 8 0 34 61 29 67 -2 1 -11 -11
-20 -26z"/>
<path d="M542 1385 c-1 -33 -11 -89 -22 -124 -26 -85 -18 -91 9 -8 16 47 21
83 18 129 l-3 63 -2 -60z"/>
<path d="M1301 1214 c0 -11 3 -14 6 -6 3 7 2 16 -1 19 -3 4 -6 -2 -5 -13z"/>
<path d="M751 1124 c0 -11 3 -14 6 -6 3 7 2 16 -1 19 -3 4 -6 -2 -5 -13z"/>
<path d="M720 1101 c0 -8 -7 -22 -15 -31 -14 -16 -14 -17 10 -13 26 6 31 18
15 43 -8 12 -10 13 -10 1z"/>
<path d="M610 1081 c-15 -4 -29 -18 -35 -36 -5 -17 -14 -33 -20 -37 -6 -5 -5
-8 3 -8 7 0 18 13 23 29 6 16 19 31 30 34 24 6 24 0 -1 -41 -25 -41 -25 -46 0
-25 11 10 20 26 20 35 0 10 11 23 25 28 14 5 25 15 25 22 0 9 -3 9 -12 0 -14
-14 -42 -16 -33 -2 3 6 5 10 3 9 -2 -1 -14 -4 -28 -8z"/>
<path d="M261 1027 c-5 -13 -16 -29 -25 -36 -18 -15 -21 -46 -7 -56 16 -9 25
16 10 26 -12 8 -11 12 3 23 17 12 43 66 33 66 -3 0 -9 -10 -14 -23z"/>
<path d="M1501 1033 c-1 -23 30 -63 48 -63 5 0 12 -10 14 -22 4 -23 4 -23 6 1
0 13 -9 34 -21 45 -13 12 -28 31 -35 42 -11 18 -12 18 -12 -3z"/>
<path d="M350 1005 c0 -14 4 -25 9 -25 4 0 6 11 3 25 -2 14 -6 25 -8 25 -2 0
-4 -11 -4 -25z"/>
<path d="M635 1011 c-3 -5 -1 -12 5 -16 5 -3 10 1 10 9 0 18 -6 21 -15 7z"/>
<path d="M671 994 c0 -11 3 -14 6 -6 3 7 2 16 -1 19 -3 4 -6 -2 -5 -13z"/>
<path d="M328 974 c-5 -4 -8 -15 -8 -25 0 -10 -9 -34 -21 -54 -17 -29 -18 -34
-5 -29 9 3 16 14 16 24 0 18 25 34 39 26 4 -3 8 5 8 17 2 16 0 18 -7 8 -6 -11
-9 -7 -12 13 -2 15 -6 24 -10 20z"/>
<path d="M851 899 c-101 -20 -169 -97 -178 -200 -4 -40 -3 -60 4 -56 5 3 9 23
8 44 -1 21 3 47 9 58 5 11 11 25 12 31 3 15 49 64 62 64 5 0 12 7 16 15 3 8
15 15 26 15 11 0 20 5 20 11 0 6 10 9 23 8 12 -1 30 1 39 5 9 4 23 4 30 0 7
-5 23 -7 35 -6 11 2 24 -2 28 -7 3 -6 15 -11 26 -11 11 0 22 -6 25 -14 3 -8
14 -16 25 -19 10 -3 19 -12 19 -21 0 -9 4 -16 10 -16 12 0 45 -69 36 -77 -3
-3 -1 -12 5 -19 6 -8 8 -21 4 -31 -5 -10 -7 -22 -6 -27 5 -20 -66 -132 -77
-121 -3 2 -10 -2 -16 -11 -6 -8 -18 -16 -26 -17 -8 -2 -22 -7 -30 -12 -22 -13
-141 -10 -150 5 -4 7 -12 10 -18 6 -5 -3 -20 3 -32 14 -13 11 -27 20 -32 20
-4 0 -8 5 -8 10 0 6 -9 19 -20 30 -12 12 -19 24 -16 28 2 4 -2 13 -10 20 -28
26 -15 -15 19 -59 117 -154 376 -110 423 71 42 163 -108 305 -285 269z"/>
<path d="M1240 849 c0 -24 26 -31 42 -11 12 15 11 16 -4 4 -14 -11 -18 -10
-27 5 -9 16 -10 16 -11 2z"/>
<path d="M606 813 c-29 -29 -38 -55 -34 -93 3 -23 0 -25 -37 -23 l-40 2 32
-11 c50 -17 66 -5 58 41 -6 34 -3 43 25 75 37 42 35 48 -4 9z"/>
<path d="M385 820 c-3 -5 -1 -10 4 -10 6 0 11 5 11 10 0 6 -2 10 -4 10 -3 0
-8 -4 -11 -10z"/>
<path d="M902 785 c0 -16 2 -22 5 -12 2 9 2 23 0 30 -3 6 -5 -1 -5 -18z"/>
<path d="M400 780 c6 -11 8 -26 4 -33 -5 -8 -4 -9 4 -2 13 11 5 55 -10 55 -5
0 -4 -9 2 -20z"/>
<path d="M1473 760 c0 -25 2 -35 4 -22 2 12 2 32 0 45 -2 12 -4 2 -4 -23z"/>
<path d="M984 758 l-29 -33 33 29 c30 28 37 36 29 36 -2 0 -16 -15 -33 -32z"/>
<path d="M160 727 c0 -31 4 -58 8 -61 9 -6 7 102 -2 112 -3 3 -6 -20 -6 -51z"/>
<path d="M950 760 c-6 -11 -8 -20 -6 -20 3 0 10 9 16 20 6 11 8 20 6 20 -3 0
-10 -9 -16 -20z"/>
<path d="M1320 764 c0 -6 -10 -19 -22 -28 -23 -16 -23 -16 5 -4 15 6 27 15 27
19 0 4 12 12 28 18 l27 10 -32 -2 c-18 -1 -33 -6 -33 -13z"/>
<path d="M240 755 c0 -6 7 -19 15 -29 20 -26 18 -123 -3 -156 -15 -25 -15 -25
5 -7 11 9 22 15 24 13 2 -2 4 36 4 85 0 49 -2 81 -6 72 -5 -14 -8 -13 -22 8
-9 13 -17 19 -17 14z"/>
<path d="M830 756 c0 -2 8 -10 18 -17 15 -13 16 -12 3 4 -13 16 -21 21 -21 13z"/>
<path d="M1386 724 c-24 -34 -9 -49 45 -45 30 2 45 -2 55 -16 14 -17 14 -16 4
5 -7 13 -20 22 -35 22 -42 0 -55 10 -49 36 8 30 4 30 -20 -2z"/>
<path d="M415 730 c-3 -5 -1 -10 4 -10 6 0 11 5 11 10 0 6 -2 10 -4 10 -3 0
-8 -4 -11 -10z"/>
<path d="M817 729 c7 -7 15 -10 18 -7 3 3 -2 9 -12 12 -14 6 -15 5 -6 -5z"/>
<path d="M898 733 c7 -3 16 -2 19 1 4 3 -2 6 -13 5 -11 0 -14 -3 -6 -6z"/>
<path d="M860 715 c-7 -9 -11 -17 -9 -20 3 -2 10 5 17 15 14 24 10 26 -8 5z"/>
<path d="M941 713 c7 -12 15 -20 18 -17 3 2 -3 12 -13 22 -17 16 -18 16 -5 -5z"/>
<path d="M430 700 c8 -5 22 -9 30 -9 10 0 8 3 -5 9 -27 12 -43 12 -25 0z"/>
<path d="M1200 695 c0 -8 5 -15 10 -15 6 0 10 7 10 15 0 8 -4 15 -10 15 -5 0
-10 -7 -10 -15z"/>
<path d="M783 683 c9 -2 25 -2 35 0 9 3 1 5 -18 5 -19 0 -27 -2 -17 -5z"/>
<path d="M926 673 c-6 -14 -5 -15 5 -6 7 7 10 15 7 18 -3 3 -9 -2 -12 -12z"/>
<path d="M1003 683 c9 -2 25 -2 35 0 9 3 1 5 -18 5 -19 0 -27 -2 -17 -5z"/>
<path d="M853 663 c1 -12 -9 -34 -23 -50 l-25 -28 30 26 c26 22 36 24 72 19
23 -3 40 -3 37 1 -2 4 0 10 6 14 5 3 10 12 10 18 0 7 -5 4 -11 -5 -17 -30 -78
-22 -92 12 -4 10 -6 7 -4 -7z"/>
<path d="M1211 647 c-1 -34 25 -87 43 -87 7 0 20 8 27 18 13 15 12 16 -4 3
-23 -18 -34 -7 -16 16 13 16 12 17 -4 4 -31 -24 -32 -2 -1 32 23 26 24 28 3 9
-33 -28 -37 -28 -42 6 l-4 27 -2 -28z"/>
<path d="M1372 650 c-1 -14 -9 -36 -18 -49 -18 -25 -12 -36 27 -46 20 -5 32
-1 51 17 13 13 17 17 8 11 -9 -7 -31 -13 -49 -13 -29 0 -31 2 -21 20 6 12 9
35 7 53 -3 25 -4 27 -5 7z"/>
<path d="M554 652 c-22 -14 7 -75 43 -92 22 -10 31 -20 27 -30 -3 -8 -2 -11 2
-7 4 4 16 -5 26 -20 27 -43 21 -18 -7 27 -14 22 -30 40 -36 40 -19 0 -40 29
-42 60 -1 16 -2 30 -2 30 0 0 -5 -4 -11 -8z"/>
<path d="M971 646 c2 -2 15 -9 29 -15 24 -11 24 -11 6 3 -16 13 -49 24 -35 12z"/>
<path d="M1500 631 c0 -6 4 -13 10 -16 6 -3 7 1 4 9 -7 18 -14 21 -14 7z"/>
<path d="M990 605 c13 -14 26 -25 28 -25 3 0 -5 11 -18 25 -13 14 -26 25 -28
25 -3 0 5 -11 18 -25z"/>
<path d="M346 607 c4 -11 -1 -26 -12 -40 -15 -17 -15 -19 -2 -8 11 8 29 10 50
6 19 -4 29 -3 23 2 -5 4 -23 19 -38 33 -21 19 -26 20 -21 7z"/>
<path d="M850 600 c-6 -11 -8 -20 -6 -20 3 0 10 9 16 20 6 11 8 20 6 20 -3 0
-10 -9 -16 -20z"/>
<path d="M902 585 c0 -16 2 -22 5 -12 2 9 2 23 0 30 -3 6 -5 -1 -5 -18z"/>
<path d="M220 590 c0 -6 7 -10 15 -10 8 0 15 2 15 4 0 2 -7 6 -15 10 -8 3 -15
1 -15 -4z"/>
<path d="M432 574 c-11 -12 -9 -14 8 -14 12 0 40 -9 62 -20 23 -11 43 -20 45
-20 2 0 -6 9 -17 20 -11 11 -26 20 -33 20 -7 0 -21 6 -32 14 -17 12 -22 12
-33 0z"/>
<path d="M1278 543 c-3 -13 2 -24 13 -32 22 -13 23 -5 5 28 -12 22 -13 22 -18
4z"/>
<path d="M277 543 c-13 -13 -7 -21 13 -16 11 3 20 9 20 14 0 10 -24 12 -33 2z"/>
<path d="M1416 542 c-9 -16 -26 -62 -21 -62 6 0 35 63 31 67 -2 3 -7 0 -10 -5z"/>
<path d="M1230 526 c0 -7 -9 -26 -21 -42 l-21 -29 26 28 c23 25 35 57 21 57
-3 0 -5 -6 -5 -14z"/>
<path d="M1336 525 c-3 -9 -6 -24 -5 -33 0 -9 5 -4 10 12 9 32 6 48 -5 21z"/>
<path d="M564 489 c-1 -15 3 -26 7 -23 11 6 12 41 2 47 -5 3 -8 -8 -9 -24z"/>
<path d="M301 494 c0 -11 3 -14 6 -6 3 7 2 16 -1 19 -3 4 -6 -2 -5 -13z"/>
<path d="M1431 464 c0 -11 3 -14 6 -6 3 7 2 16 -1 19 -3 4 -6 -2 -5 -13z"/>
<path d="M555 440 c-3 -6 1 -7 9 -4 18 7 21 14 7 14 -6 0 -13 -4 -16 -10z"/>
<path d="M960 436 c0 -2 7 -6 15 -10 8 -3 15 -1 15 4 0 6 -7 10 -15 10 -8 0
-15 -2 -15 -4z"/>
<path d="M890 390 c-8 -5 -10 -10 -5 -10 6 0 17 5 25 10 8 5 11 10 5 10 -5 0
-17 -5 -25 -10z"/>
<path d="M710 210 c0 -5 8 -10 18 -10 18 0 52 -29 52 -43 0 -4 -109 -8 -242
-8 -134 -1 -233 -4 -220 -6 25 -5 30 -38 7 -47 -13 -5 -14 -10 -4 -27 8 -16
13 -18 19 -9 4 7 22 14 38 15 29 2 31 0 35 -34 2 -20 4 -7 5 32 l2 67 75 0
c61 0 77 -3 82 -16 4 -11 -1 -22 -13 -31 -18 -14 -18 -15 5 -34 14 -11 31 -17
42 -14 14 5 19 1 19 -14 0 -12 5 -21 11 -21 6 0 9 23 8 62 l-3 63 32 3 c30 3
32 1 32 -27 0 -16 -5 -31 -11 -33 -6 -2 -1 -12 10 -22 19 -17 21 -17 21 -3 0
11 8 17 25 17 21 0 25 -5 25 -29 0 -17 5 -33 10 -36 6 -4 10 20 10 64 l0 71
59 0 c33 0 62 -4 66 -10 10 -17 -6 -59 -26 -65 -29 -10 -23 -26 8 -19 22 6 25
4 20 -9 -3 -9 -2 -19 3 -22 6 -4 10 20 10 59 0 59 2 65 23 69 12 2 -20 5 -71
6 l-93 1 -30 35 c-30 34 -59 46 -59 25z m-304 -85 c8 -19 -14 -47 -34 -43 -8
2 -16 15 -18 31 -2 23 1 27 22 27 14 0 27 -7 30 -15z m222 -22 c-3 -33 -7 -38
-30 -41 -32 -4 -35 3 -13 24 11 12 12 20 5 35 -9 16 -7 19 15 19 24 0 26 -3
23 -37z m152 7 c0 -25 -4 -30 -25 -30 -21 0 -25 5 -25 30 0 25 4 30 25 30 21
0 25 -5 25 -30z"/>
<path d="M1370 210 c0 -5 6 -10 14 -10 8 0 23 -3 33 -6 16 -5 16 -4 -1 10 -22
18 -46 21 -46 6z"/>
<path d="M1439 168 c13 -17 2 -18 -195 -20 -115 -1 -181 -3 -146 -5 46 -3 62
-8 62 -18 0 -11 -11 -15 -37 -15 -34 0 -35 -1 -20 -18 34 -37 11 -58 -25 -25
-18 16 -18 16 -12 0 8 -22 41 -40 55 -31 6 3 9 17 6 30 -3 18 0 24 14 24 15 0
19 -8 21 -42 1 -33 3 -28 7 22 l6 65 34 3 c35 4 53 -11 44 -35 -3 -7 -12 -13
-20 -13 -8 0 -11 -5 -8 -10 4 -7 13 -6 26 1 16 8 19 17 15 35 -5 20 -3 24 14
24 18 0 21 -5 18 -37 -2 -30 -8 -39 -28 -44 -23 -6 -11 -13 16 -10 7 1 15 -9
20 -21 6 -17 9 -5 11 45 l4 68 61 -3 c38 -2 63 -8 66 -15 2 -8 -6 -13 -21 -13
-14 0 -32 -3 -41 -6 -21 -8 -20 -48 2 -65 15 -13 16 -12 3 3 -19 25 -7 48 27
48 26 0 28 -2 24 -34 -2 -18 1 -37 7 -40 8 -5 11 13 11 58 0 61 2 66 23 67 20
1 20 2 2 6 -11 3 -29 12 -40 22 -18 15 -19 15 -6 -1z"/>
<path d="M480 95 c-15 -18 -6 -47 22 -71 20 -18 20 -17 -1 13 -26 35 -21 53
15 53 13 0 24 5 24 10 0 15 -46 12 -60 -5z"/>
<path d="M857 103 c-10 -9 -8 -41 2 -47 5 -4 7 2 4 13 -3 14 3 21 24 29 l28
10 -26 1 c-14 1 -29 -2 -32 -6z"/>
<path d="M340 36 c0 -2 8 -10 18 -17 15 -13 16 -12 3 4 -13 16 -21 21 -21 13z"/>
</g>
</svg>
